<?xml version="1.0" encoding="UTF-8" standalone="no"?>
<!-- Created with Inkscape (http://www.inkscape.org/) -->

<svg
   width="334.51331"
   height="228.024"
   viewBox="0 0 88.506644 60.33135"
   version="1.1"
   id="svg5"
   xmlns="http://www.w3.org/2000/svg"
   xmlns:svg="http://www.w3.org/2000/svg">
  <defs
     id="defs2" />
  <ellipse
     style="opacity:1;fill:#a05a2c;fill-opacity:0.6;stroke:none;stroke-width:0.174616;stroke-linecap:round;stroke-linejoin:round;stroke-dasharray:none;paint-order:fill markers stroke"
     id="path1852"
     cx="26.953802"
     cy="34.618378"
     rx="11.602403"
     ry="24.817215" />
  <ellipse
     style="opacity:1;fill:#a05a2c;fill-opacity:0.6;stroke:none;stroke-width:0.175805;stroke-linecap:round;stroke-linejoin:round;stroke-dasharray:none;paint-order:fill markers stroke"
     id="path1852-6"
     cx="21.28208"
     cy="40.583797"
     rx="11.414737"
     ry="25.570053"
     transform="matrix(0.98180631,-0.18988514,0.3480206,0.93748689,0,0)" />
  <path
     style="opacity:1;fill:none;fill-opacity:1;stroke:#502d16;stroke-width:2.64583;stroke-linecap:round;stroke-linejoin:round;stroke-dasharray:none;stroke-opacity:1;paint-order:fill markers stroke"
     d="M 24.469136,13.382437 C 22.652059,8.817947 4.8750423,-4.821774 1.4826493,5.355407 c -1.25359295,3.76078 5.228553,8.5194 6.202701,3.64865"
     id="path2728" />
  <path
     style="opacity:1;fill:none;fill-opacity:1;stroke:#502d16;stroke-width:2.64583;stroke-linecap:round;stroke-linejoin:round;stroke-dasharray:none;stroke-opacity:1;paint-order:fill markers stroke"
     d="m 29.67981,13.036557 c 1.817077,-4.56449 19.594094,-18.204216 22.986487,-8.02703 1.253596,3.76078 -5.228553,8.5194 -6.202701,3.64865"
     id="path2728-8" />
  <path
     id="path4842"
     style="opacity:1;fill:#502d16;fill-opacity:1;stroke:none;stroke-width:2.85461;stroke-linecap:round;stroke-linejoin:round;stroke-dasharray:none;stroke-opacity:1;paint-order:fill markers stroke"
     d="m 27.610979,12.928897 a 5.4178776,6.6071674 85.663756 0 0 -6.178884,5.90117 l 13.176556,-0.99935 a 5.4178776,6.6071674 85.663756 0 0 -6.997686,-4.902 z" />
  <path
     style="opacity:1;fill:none;fill-opacity:1;stroke:#502d16;stroke-width:1;stroke-linecap:round;stroke-linejoin:round;stroke-dasharray:none;stroke-opacity:1;paint-order:fill markers stroke"
     d="m 40.438277,17.517327 c 0,0 6.443438,9.0341 8.236971,15.8761 0,0 7.838404,-11.22619 1.859963,-14.54755 -5.978447,-3.32136 -10.096934,-1.32855 -10.096934,-1.32855 z"
     id="path14752" />
  <path
     style="opacity:1;fill:none;fill-opacity:1;stroke:#502d16;stroke-width:1;stroke-linecap:round;stroke-linejoin:round;stroke-dasharray:none;stroke-opacity:1;paint-order:fill markers stroke"
     d="m 49.605229,54.982257 c 2.524234,-2.45781 1.461397,-15.07897 0.199282,-18.46676 0,0 5.978451,-2.59065 6.709141,2.65709 0.7307,5.24775 -5.380597,5.44703 -5.380597,5.44703 0,0 8.701957,1.85996 8.303397,8.17054"
     id="path14754" />
  <path
     style="opacity:1;fill:none;fill-opacity:1;stroke:#502d16;stroke-width:1;stroke-linecap:round;stroke-linejoin:round;stroke-dasharray:none;stroke-opacity:1;paint-order:fill markers stroke"
     d="m 53.391578,17.517327 c 3.194934,3.14446 2.173414,8.08856 1.328544,11.89047"
     id="path14854" />
  <path
     style="opacity:1;fill:none;fill-opacity:1;stroke:#502d16;stroke-width:1;stroke-linecap:round;stroke-linejoin:round;stroke-dasharray:none;stroke-opacity:1;paint-order:fill markers stroke"
     d="m 59.303602,17.650187 c -6.490308,2.72333 3.76814,4.21825 0.79712,8.30339 -0.53363,0.73375 -1.08542,1.40627 -1.85996,1.79354"
     id="path14856" />
  <path
     style="opacity:1;fill:none;fill-opacity:1;stroke:#502d16;stroke-width:1;stroke-linecap:round;stroke-linejoin:round;stroke-dasharray:none;stroke-opacity:1;paint-order:fill markers stroke"
     d="m 63.820642,18.181597 c -3.64103,2.97946 -0.73665,11.76017 3.91921,9.7648"
     id="path14858" />
  <path
     style="opacity:1;fill:none;fill-opacity:1;stroke:#502d16;stroke-width:1;stroke-linecap:round;stroke-linejoin:round;stroke-dasharray:none;stroke-opacity:1;paint-order:fill markers stroke"
     d="m 68.536972,25.555017 c -1.09906,0.38884 -1.57353,-0.37094 -2.1921,-1.19569 -1.52794,-2.03726 -0.66157,-6.53376 2.59066,-5.31417 2.73348,1.02505 1.35801,6.11951 -0.9964,6.64271"
     id="path14862" />
  <path
     style="opacity:1;fill:none;fill-opacity:1;stroke:#502d16;stroke-width:1;stroke-linecap:round;stroke-linejoin:round;stroke-dasharray:none;stroke-opacity:1;paint-order:fill markers stroke"
     d="m 71.924762,17.517327 c 1.38507,3.14183 1.52782,6.47394 1.52782,9.83122"
     id="path14864" />
  <path
     style="opacity:1;fill:none;fill-opacity:1;stroke:#502d16;stroke-width:1;stroke-linecap:round;stroke-linejoin:round;stroke-dasharray:none;stroke-opacity:1;paint-order:fill markers stroke"
     d="m 75.113262,18.580167 c 0.0366,1.13846 0.32364,2.25694 0.46499,3.38778 0.17664,1.4131 0.13286,2.82976 0.13286,4.25134 0,0.65136 1.68534,-0.96022 1.79353,-1.12926 1.3818,-2.15907 1.97481,-5.23161 -0.86355,-6.17773 -0.45184,-0.15061 -1.06324,-0.44828 -1.52783,-0.33213 z"
     id="path14892" />
  <path
     style="opacity:1;fill:none;fill-opacity:1;stroke:#502d16;stroke-width:1;stroke-linecap:round;stroke-linejoin:round;stroke-dasharray:none;stroke-opacity:1;paint-order:fill markers stroke"
     d="m 60.167152,44.951757 c -0.94172,-0.84801 -1.4838,-1.72781 -1.92639,-2.9228 -1.4015,-3.78404 2.74389,-8.96523 5.51346,-4.11848 1.4438,2.52665 -0.99,9.63835 -3.58707,7.04128 z"
     id="path14922" />
  <path
     style="opacity:1;fill:none;fill-opacity:1;stroke:#502d16;stroke-width:1;stroke-linecap:round;stroke-linejoin:round;stroke-dasharray:none;stroke-opacity:1;paint-order:fill markers stroke"
     d="m 65.547752,44.420337 c 0.22142,-1.48354 0.44506,-2.96675 0.66427,-4.45062 0.49124,-3.32528 1.51212,-4.32987 2.39138,0.0664 0.45047,2.25237 0.46499,4.4373 0.46499,6.70915"
     id="path14924" />
  <path
     style="opacity:1;fill:none;fill-opacity:1;stroke:#502d16;stroke-width:1;stroke-linecap:round;stroke-linejoin:round;stroke-dasharray:none;stroke-opacity:1;paint-order:fill markers stroke"
     d="m 66.344872,41.364687 c 0.83188,-0.11346 1.68343,-0.0664 2.52424,-0.0664"
     id="path14926" />
  <path
     style="opacity:1;fill:none;fill-opacity:1;stroke:#502d16;stroke-width:1;stroke-linecap:round;stroke-linejoin:round;stroke-dasharray:none;stroke-opacity:1;paint-order:fill markers stroke"
     d="m 71.393342,37.445477 c -1.33334,2.68284 -1.72571,6.71799 1.06284,8.76839 0.70287,0.51682 2.02075,0.12644 2.85637,0.26571"
     id="path14928" />
  <path
     style="opacity:1;fill:none;fill-opacity:1;stroke:#502d16;stroke-width:1;stroke-linecap:round;stroke-linejoin:round;stroke-dasharray:none;stroke-opacity:1;paint-order:fill markers stroke"
     d="m 73.917582,37.711187 c 0.23798,2.23713 0.33098,4.57078 0.53141,6.77558"
     id="path14930" />
  <path
     style="opacity:1;fill:none;fill-opacity:1;stroke:#502d16;stroke-width:1;stroke-linecap:round;stroke-linejoin:round;stroke-dasharray:none;stroke-opacity:1;paint-order:fill markers stroke"
     d="m 74.183282,41.098977 c 1.12576,-0.2948 2.19407,-0.26571 3.32136,-0.26571"
     id="path14932" />
  <path
     style="opacity:1;fill:none;fill-opacity:1;stroke:#502d16;stroke-width:1;stroke-linecap:round;stroke-linejoin:round;stroke-dasharray:none;stroke-opacity:1;paint-order:fill markers stroke"
     d="m 76.973222,37.644767 c 0.62223,1.91373 0.92999,3.84709 0.92999,5.84559"
     id="path14934" />
  <path
     style="opacity:1;fill:none;fill-opacity:1;stroke:#502d16;stroke-width:1;stroke-linecap:round;stroke-linejoin:round;stroke-dasharray:none;stroke-opacity:1;paint-order:fill markers stroke"
     d="m 79.497462,37.578337 c 0.002,1.2621 -0.0136,2.5243 0,3.78635 0.0684,6.35812 -0.94699,4.31777 4.05205,4.31777"
     id="path14936" />
  <path
     style="opacity:1;fill:none;fill-opacity:1;stroke:#502d16;stroke-width:1;stroke-linecap:round;stroke-linejoin:round;stroke-dasharray:none;stroke-opacity:1;paint-order:fill markers stroke"
     d="m 79.563882,41.497537 c 0.95294,-0.071 1.90355,-0.0664 2.85637,-0.0664"
     id="path14938" />
  <path
     style="opacity:1;fill:none;fill-opacity:1;stroke:#502d16;stroke-width:1;stroke-linecap:round;stroke-linejoin:round;stroke-dasharray:none;stroke-opacity:1;paint-order:fill markers stroke"
     d="m 79.630312,37.578337 c 0.83995,-0.0845 1.68224,-0.0664 2.52423,-0.0664"
     id="path14940" />
  <path
     style="opacity:1;fill:none;fill-opacity:1;stroke:#502d16;stroke-width:1;stroke-linecap:round;stroke-linejoin:round;stroke-dasharray:none;stroke-opacity:1;paint-order:fill markers stroke"
     d="m 86.140172,38.774027 c -3.59726,4.87008 1.19162,4.61596 1.79354,7.17413 0.88407,3.75731 -6.1949,5.81216 -8.76839,4.78276"
     id="path14944" />
  <path
     style="opacity:1;fill:none;fill-opacity:1;stroke:#502d16;stroke-width:1;stroke-linecap:round;stroke-linejoin:round;stroke-dasharray:none;stroke-opacity:1;paint-order:fill markers stroke"
     d="m 53.325152,56.377227 c 1.36801,-0.56299 2.85612,-0.16603 4.25134,-0.39856"
     id="path14960" />
  <path
     style="opacity:1;fill:none;fill-opacity:1;stroke:#502d16;stroke-width:1;stroke-linecap:round;stroke-linejoin:round;stroke-dasharray:none;stroke-opacity:1;paint-order:fill markers stroke"
     d="m 55.650102,55.978667 c -0.0815,1.30835 0.13285,2.55875 0.13285,3.85277"
     id="path14962" />
  <path
     style="opacity:1;fill:none;fill-opacity:1;stroke:#502d16;stroke-width:1;stroke-linecap:round;stroke-linejoin:round;stroke-dasharray:none;stroke-opacity:1;paint-order:fill markers stroke"
     d="m 58.373612,59.499307 c 0.50841,-1.0113 0.79403,-3.18541 1.66068,-4.05206 0.1539,-0.15389 0.67745,0.83577 0.7307,0.92998 0.64671,1.14418 1.20371,1.95847 1.4614,2.98922"
     id="path14964" />
  <path
     style="opacity:1;fill:none;fill-opacity:1;stroke:#502d16;stroke-width:1;stroke-linecap:round;stroke-linejoin:round;stroke-dasharray:none;stroke-opacity:1;paint-order:fill markers stroke"
     d="m 58.905032,57.572917 c 0.74436,-0.17314 1.503,-0.13285 2.25853,-0.13285"
     id="path14966" />
  <path
     style="opacity:1;fill:none;fill-opacity:1;stroke:#502d16;stroke-width:1;stroke-linecap:round;stroke-linejoin:round;stroke-dasharray:none;stroke-opacity:1;paint-order:fill markers stroke"
     d="m 63.289232,58.768607 c 0.17713,-0.75284 0.33459,-1.51059 0.53141,-2.25853 0.82965,-3.15266 0.53397,1.19824 1.32855,1.99282 0.22528,0.22528 1.765,-4.94549 1.85996,-2.85637 0.0236,0.5178 0.0635,1.07437 0.13285,1.59425 0.0629,0.47214 0.13286,0.91925 0.13286,1.39497"
     id="path14968" />
  <path
     style="opacity:1;fill:none;fill-opacity:1;stroke:#502d16;stroke-width:1;stroke-linecap:round;stroke-linejoin:round;stroke-dasharray:none;stroke-opacity:1;paint-order:fill markers stroke"
     d="m 68.802682,58.835037 c 0,-0.48714 0,-0.97427 0,-1.4614 0,-5.73965 4.36399,-0.59785 0.0664,-0.59785"
     id="path14970" />
  <path
     style="opacity:1;fill:none;fill-opacity:1;stroke:#502d16;stroke-width:1;stroke-linecap:round;stroke-linejoin:round;stroke-dasharray:none;stroke-opacity:1;paint-order:fill markers stroke"
     d="m 71.592622,58.967887 c 1.02586,-5.37631 2.14131,-3.30963 2.78994,-0.0664"
     id="path14972" />
  <path
     style="opacity:1;fill:none;fill-opacity:1;stroke:#502d16;stroke-width:1;stroke-linecap:round;stroke-linejoin:round;stroke-dasharray:none;stroke-opacity:1;paint-order:fill markers stroke"
     d="m 72.323322,57.772197 c 0.61436,0.0297 1.18546,-0.0664 1.79354,-0.0664"
     id="path14976" />
</svg>
