<?xml version="1.0" encoding="UTF-8" standalone="no"?>
<!-- Uploaded to: SVG Repo, www.svgrepo.com, Generator: SVG Repo Mixer Tools -->

<svg
   fill="#008A00"
   width="491.92505"
   height="550"
   viewBox="0 0 19.677002 22"
   version="1.1"
   xmlns="http://www.w3.org/2000/svg"
   xmlns:svg="http://www.w3.org/2000/svg">
  <defs
     id="defs8" />
  <path
     d="m 5.5864917,0.773 c 0,0 -0.33,-0.773 -0.834,-0.773 -0.496,0 -0.754,0.229 -0.926,0.387 -0.172,0.158 -3.04999999,2.523 -3.04999999,2.523 0,0 -0.837,0.731 -0.773,2.106 0.054,1.375 0.323,3.332 1.71899999,6.058 1.386,2.72 4.855,6.876 7.047,8.337 0,0 2.0310003,1.558 3.9210003,2.191 0.549,0.173 1.647,0.398 1.903,0.398 0.26,0 0.719,0 1.246,-0.385 0.536,-0.389 3.543,-2.807 3.543,-2.807 0,0 0.736,-0.665 -0.119,-1.438 -0.859,-0.773 -3.467,-2.492 -4.025,-2.944 -0.559,-0.459 -1.355,-0.257 -1.699,0.054 -0.343,0.313 -0.956,0.828 -1.031,0.893 -0.112,0.086 -0.419,0.365 -0.763,0.226 -0.438,-0.173 -2.2340003,-1.148 -3.8990003,-3.426 -1.655,-2.276 -1.837,-3.02 -2.084,-3.824 a 0.56,0.56 0 0 1 0.225,-0.657 c 0.248,-0.172 1.161,-0.933 1.161,-0.933 0,0 0.591,-0.583 0.344,-1.27 -0.247,-0.687 -1.906,-4.716 -1.906,-4.716 z"
     id="path2" />
</svg>
